PathFileType	4	(X/Y/Z)	/Users/niels/Desktop/University/Third Semester/Perception and Action/Exam/Gymnastics Motion Tracking/Code for Gym Tracking/Analyzed Data/Start Salto/stsalto_good_id16_1_Sports2D/stsalto_good_id16_1_Sports2D_px_person00.trc
DataRate	CameraRate	NumFrames	NumMarkers	Units	OrigDataRate	OrigDataStartFrame	OrigNumFrames
29.837837837837835	29.837837837837835	12	22	m	29.837837837837835	0	185
Frame#	Time	Hip			RHip			RKnee			RAnkle			RBigToe			RSmallToe			RHeel			LHip			LKnee			LAnkle			LBigToe			LSmallToe			LHeel			Neck			Head			Nose			RShoulder			RElbow			RWrist			LShoulder			LElbow			LWrist		
		X1	Y1	Z1	X2	Y2	Z2	X3	Y3	Z3	X4	Y4	Z4	X5	Y5	Z5	X6	Y6	Z6	X7	Y7	Z7	X8	Y8	Z8	X9	Y9	Z9	X10	Y10	Z10	X11	Y11	Z11	X12	Y12	Z12	X13	Y13	Z13	X14	Y14	Z14	X15	Y15	Z15	X16	Y16	Z16	X17	Y17	Z17	X18	Y18	Z18	X19	Y19	Z19	X20	Y20	Z20	X21	Y21	Z21	X22	Y22	Z22
0	0.0	-0.05416019463828196	-0.7295242072863919	0.0	0.033802225148945896	-0.8623163098682872	0.0	-0.1276828701077405	0.6482639084517946	0.0	0.45529473226657163	2.1676820287476377	0.0	0.45851886099359285	2.733024371047762	0.0	-0.9940550132520374	-0.9322860390056678	0.0	-0.8382573249255807	-0.7400083208194638	0.0	-0.17079831394791048	-0.7741550294348768	0.0	-0.12435616279478494	0.648261757106355	0.0	0.4835557733220395	2.1589845143890036	0.0	0.5414140794940172	2.6637030243499336	0.0	-0.9929236589622543	-0.9317599483923616	0.0	-0.8242030161631843	-0.7263399834598819	0.0	-0.21497760694592977	-0.694635308919778	0.0	0.03262691845359483	-0.3018095565166308	0.0	-0.5186289232149671	-0.9114195630014804	0.0	0.06271324737635332	-0.5944503001792206	0.0	-0.37814379671781084	-0.7265711524746554	0.0	-0.37772585093189265	-0.6337804170504295	0.0	-0.57760884573025	-0.6086449250930677	0.0	-0.3780275165760312	-0.6752446803990825	0.0	-0.33831320629683304	-0.6272800956539469	0.0
1	0.03351449275362319	-0.04871406285308013	-0.7124090903885879	0.0	0.03112465090840436	-0.833517989775343	0.0	-0.11278935017818832	0.5230963297859427	0.0	0.40962631481848033	1.8770420075608696	0.0	0.4162547409829525	2.381591000447484	0.0	-0.8921626161055239	-0.9158590414386134	0.0	-0.7547584847518463	-0.7401616511417073	0.0	-0.15408667068290227	-0.7533732550877864	0.0	-0.10949500218388594	0.5233844841885462	0.0	0.4351275084748712	1.8693307553905858	0.0	0.49034277366612744	2.3192086898052118	0.0	-0.8898669540855312	-0.9150107761198907	0.0	-0.742028776750293	-0.7286341056536895	0.0	-0.1943737569010972	-0.6660331527881014	0.0	0.03269208489100497	-0.3018282118319044	0.0	-0.4668424677558894	-0.8604597291835826	0.0	0.05703486873934319	-0.5769527041848406	0.0	-0.33503589759573904	-0.6982180108476853	0.0	-0.3300139488522605	-0.6121071258500014	0.0	-0.520592288008966	-0.5894560453873039	0.0	-0.33534199712096163	-0.6525972326613124	0.0	-0.2954366398912665	-0.6062422607353198	0.0
2	0.06702898550724638	-0.04336145572058663	-0.695319309918906	0.0	0.0283781069276305	-0.8047496249847083	0.0	-0.0982132350109423	0.39754187558410176	0.0	0.3633828205635536	1.5855428989409512	0.0	0.3733701309880688	2.029066179112155	0.0	-0.7904755547338884	-0.8994330672279445	0.0	-0.6714504063328703	-0.7403067148480452	0.0	-0.13747841985941658	-0.7326142194261893	0.0	-0.0947402316952737	0.3983449398427321	0.0	0.38646808128673427	1.5787850657978069	0.0	0.4390012107060887	1.973651487413481	0.0	-0.7866178737339196	-0.8982680331049332	0.0	-0.6596779444982118	-0.7310488606044165	0.0	-0.17393191568474492	-0.6374382972191365	0.0	0.03257606724005631	-0.3018586259168202	0.0	-0.4152354248659252	-0.8095047369599848	0.0	0.0512576801625514	-0.5595096737694304	0.0	-0.2918034285238482	-0.6699467345417233	0.0	-0.2821678115923877	-0.590587030207425	0.0	-0.46374358169902363	-0.5702851959812498	0.0	-0.2929326536360949	-0.6300109767755959	0.0	-0.2528351704068556	-0.585274329623622	0.0
3	0.10054347826086957	-0.03819377621948252	-0.6781790361250554	0.0	0.02544142593473988	-0.775879767661875	0.0	-0.08404348067454137	0.2709588112620266	0.0	0.3161284227999823	1.291671124713501	0.0	0.32942459304455907	1.6736002629336726	0.0	-0.6886734352021526	-0.8829236391667321	0.0	-0.5880965745646627	-0.7404276921669347	0.0	-0.12101251720526955	-0.7117835790294682	0.0	-0.08021486086726717	0.2724843198603506	0.0	0.33724238314047594	1.285826944549903	0.0	0.3870507001909325	1.6252344116543196	0.0	-0.6827030092669198	-0.8814338813053774	0.0	-0.5767982551279127	-0.7336048630208359	0.0	-0.15371494815419148	-0.6087100352401963	0.0	0.03209696940878085	-0.3018976456077856	0.0	-0.36372424931863	-0.758298701642688	0.0	0.04521005189679739	-0.5420619931722058	0.0	-0.24837662889057402	-0.6416864604747948	0.0	-0.2341478249692128	-0.5691909674253632	0.0	-0.40694320627794334	-0.5510420272416947	0.0	-0.25076175231450104	-0.6074088533433694	0.0	-0.2104820642214523	-0.5643026272006437	0.0
4	0.13405797101449277	-0.03333506484894773	-0.6609124507468388	0.0	0.022157430439181145	-0.7467822722125371	0.0	-0.07029560246398579	0.14301011363630256	0.0	0.2676661592672785	0.9945773144797814	0.0	0.2842277239312911	1.3141660648809756	0.0	-0.5865004723318118	-0.8662524833711682	0.0	-0.5045186813547254	-0.7405014015382482	0.0	-0.10476304761367371	-0.6907904804613494	0.0	-0.06613112335399361	0.14528859882155556	0.0	0.28721986932345595	0.9896118434346771	0.0	0.334291204510059	1.2729743988115299	0.0	-0.5778599115739912	-0.8644043939631532	0.0	-0.4932399225488335	-0.7362502547633603	0.0	-0.13381794059809415	-0.5797197462049735	0.0	0.031051474839479842	-0.3019320075413105	0.0	-0.31226999774922587	-0.7066086122255374	0.0	0.03867825036343229	-0.5245458243838741	0.0	-0.20490034376768898	-0.6133822092249566	0.0	-0.18617819718033476	-0.5478622073498972	0.0	-0.350119007140308	-0.5316388676040956	0.0	-0.20876884734136225	-0.5847136215151403	0.0	-0.16833778856235568	-0.5432432443808957	0.0
5	0.16757246376811596	-0.028895164956850055	-0.6434544936608847	0.0	0.018378188269748547	-0.7173609794576385	0.0	-0.0567630307282734	0.014034464599098503	0.0	0.21840374542432417	0.6949195920643	0.0	0.23822433265478196	0.9516061819913177	0.0	-0.483793738959179	-0.8493702711450238	0.0	-0.4206068289926913	-0.7405022922674951	0.0	-0.08880303997201021	-0.6695647777776702	0.0	-0.05274538540416131	0.01664771888086796	0.0	0.23646451288049503	0.6908302902127328	0.0	0.280873988539586	0.9177244150716417	0.0	-0.4722757825651909	-0.8470907949937709	0.0	-0.4092559741043694	-0.7387964227442978	0.0	-0.11430532415577148	-0.5503873172462707	0.0	0.029317271095481413	-0.3019326260686716	0.0	-0.26084997651859043	-0.6542936489390377	0.0	0.03147314790203538	-0.5068881512136695	0.0	-0.161847740437308	-0.5849891768942114	0.0	-0.13886858322570053	-0.5264650611735826	0.0	-0.2932316253295159	-0.5120083156656318	0.0	-0.16678110490144685	-0.5618467173956199	0.0	-0.12626037776248034	-0.5219945649770925	0.0
6	0.20108695652173914	-0.024869649085377317	-0.6257829376918096	0.0	0.014070706685331027	-0.6876119037594248	0.0	-0.04281364676941887	-0.11440149147453421	0.0	0.1698790902563842	0.3961421797586885	0.0	0.19304429360610698	0.5902153037339724	0.0	-0.38056863026772	-0.8323053313791683	0.0	-0.3363632173667257	-0.7404159824690475	0.0	-0.07313020406748211	-0.6481010758094384	0.0	-0.040231274328717245	-0.11268538012647848	0.0	0.18563931703080513	0.3930060601674893	0.0	0.22762596674724792	0.5637113961743375	0.0	-0.36695022260085547	-0.8294738125543619	0.0	-0.3257867532494529	-0.7408500110896303	0.0	-0.09509427198704336	-0.5207594994030628	0.0	0.02704822344198217	-0.3018510978745801	0.0	-0.20941791729049178	-0.6014517410023952	0.0	0.02358015354757252	-0.48901511157273897	0.0	-0.12011380024569532	-0.5564738856740361	0.0	-0.09329283832529991	-0.5047285831903799	0.0	-0.23626123693106124	-0.4921472614795717	0.0	-0.12440214561287617	-0.5387436501055866	0.0	-0.08388800203555342	-0.5004468176980895	0.0
7	0.23460144927536233	-0.020975958604937485	-0.6079804374422146	0.0	0.009499834668783451	-0.6577343983438148	0.0	-0.027185872195898405	-0.2388780571656995	0.0	0.12532726711290323	0.10596050087274876	0.0	0.15209013979966376	0.2395693665196114	0.0	-0.27718274128896	-0.8152427377405123	0.0	-0.2519948446169773	-0.7402646547218984	0.0	-0.05754825856396115	-0.6265380866253184	0.0	-0.028437000927181287	-0.24045695723236643	0.0	0.13638725104962843	0.10399713621145155	0.0	0.17643046841014073	0.2203039871676353	0.0	-0.26411703031509715	-0.8117020107015676	0.0	-0.24475887665165905	-0.7417804874689833	0.0	-0.07578328912867686	-0.4911374178557914	0.0	0.024966658139793353	-0.30162386119708756	0.0	-0.1578601944688084	-0.5486552763684321	0.0	0.015412498974760418	-0.4708853606577039	0.0	-0.08099689170669568	-0.5278299934568634	0.0	-0.050910434374770545	-0.4822142606479102	0.0	-0.17920371298638493	-0.472195342355259	0.0	-0.08091968919236237	-0.5153984337019555	0.0	-0.040529131763651124	-0.4785257324216132	0.0
8	0.26811594202898553	-0.016440987032571384	-0.5903250006233914	0.0	0.005478063433943386	-0.6282821989513339	0.0	-0.007913776108020997	-0.3537559800772787	0.0	0.08996771080911133	-0.1626856163780851	0.0	0.12082312949496725	-0.08431717380300381	0.0	-0.17456099135057343	-0.798621800373794	0.0	-0.16804665870626867	-0.7401446064454512	0.0	-0.041514718709788685	-0.605267252868696	0.0	-0.016517654048932233	-0.36228492801728795	0.0	0.09163808785622299	-0.16305436807428847	0.0	0.130485006160235	-0.09689128087622001	0.0	-0.16751156592103122	-0.79422882691034	0.0	-0.1692064401296983	-0.7407954975569572	0.0	-0.055455718033264705	-0.4622337469399836	0.0	0.024699844972949733	-0.30119217949196286	0.0	-0.10596010541116892	-0.4972379068726755	0.0	0.008148117647037318	-0.45255854962701814	0.0	-0.04591220710807588	-0.4991132726556961	0.0	-0.013148079484093507	-0.4583583259964033	0.0	-0.12208003478297787	-0.45254146324978345	0.0	-0.03531005257186433	-0.4919445107383553	0.0	0.0048662033383521305	-0.4562858107659242	0.0
9	0.3016304347826087	-0.009808671610596625	-0.5733863266219403	0.0	0.0036134873335214217	-0.6003058676980716	0.0	0.017389698415345448	-0.4517039706358926	0.0	0.0704157642246867	-0.3926554136290944	0.0	0.10612247523296604	-0.3602968545463738	0.0	-0.0743990765634036	-0.7832107247240074	0.0	-0.08552691126151575	-0.7402687315115487	0.0	-0.024003183176923924	-0.5850365954923308	0.0	-0.002501662508124582	-0.4714944006478372	0.0	0.05552432476347382	-0.39079295554576643	0.0	0.09408116542470597	-0.3673543339379182	0.0	-0.08206613923094726	-0.7779500298164677	0.0	-0.10286399902782177	-0.7372285660411979	0.0	-0.032546296422751364	-0.43529258221387823	0.0	0.029003614781155904	-0.3005473973593457	0.0	-0.05339340275214353	-0.4495062089628906	0.0	0.004047531185611488	-0.43430017291980927	0.0	-0.015633346658362645	-0.47049379224681115	0.0	0.019578964326241097	-0.4326622983021369	0.0	-0.06495886246115723	-0.43392436153715525	0.0	0.013535274444372946	-0.4687660871627667	0.0	0.05352956468634569	-0.43405808475623275	0.0
10	0.33514492753623193	0.0010790915694818878	-0.558070486357589	0.0	0.0063907650913532996	-0.5753764169869803	0.0	0.05056964420468821	-0.5260682842402574	0.0	0.07234994401051431	-0.5677992260644802	0.0	0.11381106937214142	-0.5685667577312788	0.0	0.020835813177433608	-0.7700743753254976	0.0	-0.005917550409391767	-0.7409932035576469	0.0	-0.0034879387563999894	-0.5669715919106268	0.0	0.01702133326984047	-0.5602036358607725	0.0	0.03239689461690651	-0.5629645403667698	0.0	0.07136209781513606	-0.5720320679349742	0.0	-0.01240149989979083	-0.7642495057329083	0.0	-0.0487321089896737	-0.7311535170348582	0.0	-0.004944200240334504	-0.4120357487703586	0.0	0.041566400799815564	-0.2998078369936622	0.0	0.0002063086067295494	-0.40862232688239203	0.0	0.006516965778070013	-0.41670301823160755	0.0	0.011120660378896897	-0.44231086525644536	0.0	0.04957118324526442	-0.40511437989629034	0.0	-0.007986566442392692	-0.4174497592308158	0.0	0.06620041485429283	-0.44660652631792647	0.0	0.10632208271270242	-0.41262972178206664	0.0
11	0.3686594202898551	0.018669728609933815	-0.5455085288919649	0.0	0.016794331753494002	-0.5553027487162541	0.0	0.09153740003638518	-0.5746758821694471	0.0	0.09694649535362453	-0.6816497848824087	0.0	0.14493507109266418	-0.7013891568831652	0.0	0.10840613599205762	-0.7603025032757563	0.0	0.0691090833474186	-0.7427884611531496	0.0	0.021766739050528	-0.552379319373293	0.0	0.04633111510670131	-0.6221611020014044	0.0	0.025866828524944423	-0.6734548490359042	0.0	0.06514942460918184	-0.7038203593300444	0.0	0.040622429424042705	-0.7547913548699325	0.0	-0.006083278892870838	-0.7243889753964792	0.0	0.029400458613686946	-0.3942208665211453	0.0	0.06592495395241182	-0.29932208076903716	0.0	0.05506089105679082	-0.3777611495677254	0.0	0.019512457801783935	-0.4007676857186967	0.0	0.038968336892756444	-0.4154459561597453	0.0	0.08281899102983406	-0.37701630607520387	0.0	0.04859003574595243	-0.40439230331450815	0.0	0.12199872365078111	-0.426553172156685	0.0	0.1629835403979253	-0.39327389276032143	0.0
